<mxfile host="65bd71144e">
    <diagram id="dPzF4iebmM-cbbbo0TP5" name="Search Engine">
        <mxGraphModel dx="1434" dy="669" grid="1" gridSize="10" guides="1" tooltips="1" connect="1" arrows="1" fold="1" page="1" pageScale="1" pageWidth="850" pageHeight="1100" math="0" shadow="0">
            <root>
                <mxCell id="OzikpktiN2Qh5DX7MhZS-0"/>
                <mxCell id="OzikpktiN2Qh5DX7MhZS-1" parent="OzikpktiN2Qh5DX7MhZS-0"/>
                <mxCell id="OzikpktiN2Qh5DX7MhZS-19" value="" style="rounded=0;whiteSpace=wrap;html=1;fillColor=none;" parent="OzikpktiN2Qh5DX7MhZS-1" vertex="1">
                    <mxGeometry x="167.5" y="80" width="150" height="230" as="geometry"/>
                </mxCell>
                <mxCell id="6" value="" style="rounded=0;whiteSpace=wrap;html=1;" parent="OzikpktiN2Qh5DX7MhZS-1" vertex="1">
                    <mxGeometry x="175" y="120" width="135" height="170" as="geometry"/>
                </mxCell>
                <mxCell id="OzikpktiN2Qh5DX7MhZS-2" value="Next.js&lt;br&gt;(Serverless)&lt;br&gt;&lt;br&gt;&lt;br&gt;&lt;br&gt;" style="rounded=0;whiteSpace=wrap;html=1;" parent="OzikpktiN2Qh5DX7MhZS-1" vertex="1">
                    <mxGeometry x="180" y="130" width="120" height="120" as="geometry"/>
                </mxCell>
                <mxCell id="OzikpktiN2Qh5DX7MhZS-3" value="" style="rounded=0;whiteSpace=wrap;html=1;" parent="OzikpktiN2Qh5DX7MhZS-1" vertex="1">
                    <mxGeometry x="190" y="190" width="100" height="40" as="geometry"/>
                </mxCell>
                <mxCell id="OzikpktiN2Qh5DX7MhZS-20" value="Project Double D" style="text;html=1;strokeColor=none;fillColor=none;align=center;verticalAlign=middle;whiteSpace=wrap;rounded=0;" parent="OzikpktiN2Qh5DX7MhZS-1" vertex="1">
                    <mxGeometry x="187.5" y="90" width="105" height="20" as="geometry"/>
                </mxCell>
                <mxCell id="1" value="Brower" style="rounded=0;whiteSpace=wrap;html=1;" parent="OzikpktiN2Qh5DX7MhZS-1" vertex="1">
                    <mxGeometry x="50" y="180" width="80" height="50" as="geometry"/>
                </mxCell>
                <mxCell id="9" value="&lt;font style=&quot;font-size: 12px&quot;&gt;Versel&lt;/font&gt;" style="text;html=1;strokeColor=none;fillColor=none;align=center;verticalAlign=middle;whiteSpace=wrap;rounded=0;" parent="OzikpktiN2Qh5DX7MhZS-1" vertex="1">
                    <mxGeometry x="197.5" y="260" width="80" height="20" as="geometry"/>
                </mxCell>
                <mxCell id="19" value="File&lt;br&gt;(README.md)" style="text;html=1;strokeColor=none;fillColor=none;align=center;verticalAlign=middle;whiteSpace=wrap;rounded=0;" parent="OzikpktiN2Qh5DX7MhZS-1" vertex="1">
                    <mxGeometry x="215" y="200" width="45" height="20" as="geometry"/>
                </mxCell>
                <mxCell id="21" value="" style="endArrow=classic;html=1;exitX=1;exitY=0.5;exitDx=0;exitDy=0;entryX=0;entryY=0.5;entryDx=0;entryDy=0;" edge="1" parent="OzikpktiN2Qh5DX7MhZS-1" source="1" target="6">
                    <mxGeometry width="50" height="50" relative="1" as="geometry">
                        <mxPoint x="190" y="330" as="sourcePoint"/>
                        <mxPoint x="240" y="280" as="targetPoint"/>
                    </mxGeometry>
                </mxCell>
                <mxCell id="22" value="" style="rounded=0;whiteSpace=wrap;html=1;" vertex="1" parent="OzikpktiN2Qh5DX7MhZS-1">
                    <mxGeometry x="330" y="180" width="100" height="50" as="geometry"/>
                </mxCell>
                <mxCell id="23" value="FireBase" style="text;html=1;strokeColor=none;fillColor=none;align=center;verticalAlign=middle;whiteSpace=wrap;rounded=0;" vertex="1" parent="OzikpktiN2Qh5DX7MhZS-1">
                    <mxGeometry x="340" y="195" width="80" height="20" as="geometry"/>
                </mxCell>
                <mxCell id="24" value="" style="endArrow=classic;html=1;exitX=1;exitY=0.5;exitDx=0;exitDy=0;entryX=0;entryY=0.5;entryDx=0;entryDy=0;" edge="1" parent="OzikpktiN2Qh5DX7MhZS-1" source="6" target="22">
                    <mxGeometry width="50" height="50" relative="1" as="geometry">
                        <mxPoint x="330" y="270" as="sourcePoint"/>
                        <mxPoint x="380" y="220" as="targetPoint"/>
                    </mxGeometry>
                </mxCell>
            </root>
        </mxGraphModel>
    </diagram>
    <diagram id="f9cJKZpROqkz0lS0y9gb" name="Page-1">
        <mxGraphModel dx="686" dy="433" grid="1" gridSize="10" guides="1" tooltips="1" connect="1" arrows="1" fold="1" page="1" pageScale="1" pageWidth="850" pageHeight="1100" background="#F4F1DE" math="0" shadow="0">
            <root>
                <mxCell id="0"/>
                <mxCell id="1" parent="0"/>
                <mxCell id="11" style="edgeStyle=orthogonalEdgeStyle;curved=0;rounded=1;sketch=0;orthogonalLoop=1;jettySize=auto;html=1;exitX=0;exitY=0.5;exitDx=0;exitDy=0;entryX=1;entryY=0.5;entryDx=0;entryDy=0;strokeColor=#E07A5F;fillColor=#F2CC8F;fontColor=#393C56;" parent="1" source="9" target="4" edge="1">
                    <mxGeometry relative="1" as="geometry"/>
                </mxCell>
                <mxCell id="9" value="" style="rounded=1;whiteSpace=wrap;html=1;fillColor=#F2CC8F;strokeColor=#E07A5F;fontColor=#393C56;" parent="1" vertex="1">
                    <mxGeometry x="560" y="120" width="190" height="110" as="geometry"/>
                </mxCell>
                <mxCell id="2" value="EC2" style="rounded=0;whiteSpace=wrap;html=1;fillColor=#F2CC8F;strokeColor=#E07A5F;fontColor=#393C56;" parent="1" vertex="1">
                    <mxGeometry x="40" y="150" width="120" height="60" as="geometry"/>
                </mxCell>
                <mxCell id="13" style="edgeStyle=orthogonalEdgeStyle;curved=0;rounded=1;sketch=0;orthogonalLoop=1;jettySize=auto;html=1;exitX=0;exitY=0.5;exitDx=0;exitDy=0;entryX=1;entryY=0.5;entryDx=0;entryDy=0;strokeColor=#E07A5F;fillColor=#F2CC8F;fontColor=#393C56;" parent="1" source="3" target="2" edge="1">
                    <mxGeometry relative="1" as="geometry"/>
                </mxCell>
                <mxCell id="3" value="Lamda" style="rounded=1;whiteSpace=wrap;html=1;fillColor=#F2CC8F;strokeColor=#E07A5F;fontColor=#393C56;" parent="1" vertex="1">
                    <mxGeometry x="205" y="150" width="120" height="60" as="geometry"/>
                </mxCell>
                <mxCell id="12" style="edgeStyle=orthogonalEdgeStyle;curved=0;rounded=1;sketch=0;orthogonalLoop=1;jettySize=auto;html=1;exitX=0;exitY=0.5;exitDx=0;exitDy=0;entryX=1;entryY=0.5;entryDx=0;entryDy=0;strokeColor=#E07A5F;fillColor=#F2CC8F;fontColor=#393C56;" parent="1" source="4" target="3" edge="1">
                    <mxGeometry relative="1" as="geometry"/>
                </mxCell>
                <mxCell id="4" value="Simple Notification Service" style="rounded=1;whiteSpace=wrap;html=1;fillColor=#F2CC8F;strokeColor=#E07A5F;fontColor=#393C56;" parent="1" vertex="1">
                    <mxGeometry x="375" y="150" width="120" height="60" as="geometry"/>
                </mxCell>
                <mxCell id="6" value="알람을 받고 삭제를 한다." style="text;html=1;strokeColor=none;fillColor=none;align=center;verticalAlign=middle;whiteSpace=wrap;rounded=0;fontColor=#393C56;" parent="1" vertex="1">
                    <mxGeometry x="190" y="220" width="150" height="20" as="geometry"/>
                </mxCell>
                <mxCell id="7" value="어떤 상태를 인식한다." style="text;html=1;strokeColor=none;fillColor=none;align=center;verticalAlign=middle;whiteSpace=wrap;rounded=0;fontColor=#393C56;" parent="1" vertex="1">
                    <mxGeometry x="360" y="220" width="150" height="20" as="geometry"/>
                </mxCell>
                <mxCell id="8" value="Budget" style="rounded=1;whiteSpace=wrap;html=1;fillColor=#F2CC8F;strokeColor=#E07A5F;fontColor=#393C56;" parent="1" vertex="1">
                    <mxGeometry x="600" y="160" width="120" height="60" as="geometry"/>
                </mxCell>
                <mxCell id="10" value="Billing" style="text;html=1;strokeColor=none;fillColor=none;align=center;verticalAlign=middle;whiteSpace=wrap;rounded=0;fontColor=#393C56;" parent="1" vertex="1">
                    <mxGeometry x="580" y="130" width="40" height="20" as="geometry"/>
                </mxCell>
            </root>
        </mxGraphModel>
    </diagram>
</mxfile>